#!OML:ASF H:\GeneralSubjects\Female5\Project 1\Capture day 1\Session 1\Female5.ASF
:FULLY-SPECIFIED
:DEGREES
168
root -13.0939 15.2561 1.94464 364.984 -86.2467 -358.854
lowerback 7.71319 -0.985617 -4.63269
upperback -9.96635 -2.12393 1.512
thorax -15.2311 -0.463169 4.76412
lowerneck -15.4244 -3.50243 -3.39259
upperneck 30.1325 -4.01498 -2.62913
head 12.5844 -2.80932 -1.09689
rclavicle 5.71506e-015 -6.36111e-015
rhumerus -55.7263 10.7844 -57.2784
rradius 29.1059
rwrist -20.3075
rhand -22.5848 -21.2326
rfingers 7.12502
rthumb 3.84404 -51.1777
lclavicle 5.71506e-015 -6.36111e-015
lhumerus -48.4477 -1.76481 80.9761
lradius 46.7393
lwrist -11.9302
lhand -31.8914 25.9456
lfingers 7.12502
lthumb -5.14383 55.8632
rfemur -26.602 8.4369 29.3261
rtibia 17.9955
rfoot 353.288 -12.6834
rtoes -13.8628
lfemur 17.432 -8.33603 -33.806
ltibia 23.9303
lfoot 355.419 6.50458
ltoes -25.7103
169
root -13.42 15.321 1.90007 372.745 -85.9351 -367.152
lowerback 7.78193 -0.923321 -4.18489
upperback -9.98143 -1.92939 1.8601
thorax -15.3136 -0.391813 4.87054
lowerneck -15.1637 -3.68712 -3.98473
upperneck 30.0484 -4.14253 -2.58839
head 12.5175 -2.92915 -0.992206
rclavicle -4.91992e-015 -1.8487e-014
rhumerus -55.375 11.634 -58.6129
rradius 29.4152
rwrist -20.3971
rhand -21.3721 -20.9695
rfingers 7.12502
rthumb 5.01503 -50.8902
lclavicle -4.91992e-015 -1.8487e-014
lhumerus -49.5406 -0.621966 80.2663
lradius 45.8596
lwrist -10.3539
lhand -30.8199 27.2716
lfingers 7.12502
lthumb -4.10923 57.2117
rfemur -23.3542 8.50604 30.4673
rtibia 15.9796
rfoot 352.795 -12.6779
rtoes -15.3686
lfemur 15.8311 -6.97752 -31.122
ltibia 27.8791
lfoot 359.535 12.264
ltoes -5.71826
170
root -13.7417 15.3902 1.84941 378.98 -85.3609 -373.928
lowerback 7.8214 -0.888675 -3.84641
upperback -9.95236 -1.78276 2.22525
thorax -15.3162 -0.332556 5.06411
lowerneck -14.943 -3.95737 -4.66827
upperneck 30.0535 -4.40338 -2.45373
head 12.5037 -3.10771 -0.860928
rclavicle -6.85807e-015 9.74045e-015
rhumerus -55.1252 12.709 -60.1162
rradius 29.7198
rwrist -20.2747
rhand -20.1905 -20.9532
rfingers 7.12502
rthumb 6.15593 -50.8437
lclavicle -6.85807e-015 9.74045e-015
lhumerus -50.5033 0.424248 79.5046
lradius 44.9208
lwrist -9.55359
lhand -29.688 27.975
lfingers 7.12502
lthumb -3.01619 57.9334
rfemur -19.8468 8.64311 31.5929
rtibia 13.4927
rfoot 352.114 -12.886
rtoes -14.7908
lfemur 13.9724 -5.35901 -28.3867
ltibia 31.5152
lfoot 362.067 18.5581
ltoes -8.03965
171
root -14.0577 15.4604 1.79773 385.143 -84.462 -380.609
lowerback 7.80314 -0.888647 -3.34706
upperback -9.88195 -1.6515 2.62852
thorax -15.2308 -0.299879 5.20793
lowerneck -14.6427 -4.34079 -5.32914
upperneck 29.9311 -4.85578 -2.26777
head 12.4281 -3.35749 -0.737019
rclavicle -1.07344e-014 -7.95139e-015
rhumerus -54.9466 13.7726 -61.5557
rradius 30.1003
rwrist -19.6744
rhand -19.1931 -20.8788
rfingers 7.12502
rthumb 7.11871 -50.739
lclavicle -1.07344e-014 -7.95139e-015
lhumerus -51.144 1.58474 78.512
lradius 43.6024
lwrist -9.49985
lhand -28.8327 27.4367
lfingers 7.12502
lthumb -2.19009 57.4052
rfemur -16.5946 8.76204 32.9289
rtibia 11.1128
rfoot 351.251 -13.2761
rtoes -13.2701
lfemur 11.7171 -3.83697 -25.5382
ltibia 35.6881
lfoot 367.97 24.3513
ltoes -17.5045
172
root -14.3616 15.5313 1.75127 390.458 -83.2574 -386.352
lowerback 7.76383 -0.915347 -2.57522
upperback -9.81343 -1.51668 3.05232
thorax -15.1385 -0.2958 5.21865
lowerneck -14.3816 -4.79525 -5.8848
upperneck 29.7351 -5.40161 -2.19056
head 12.3305 -3.64713 -0.684634
rclavicle -2.03754e-014 -1.59028e-014
rhumerus -54.7726 14.8569 -62.8778
rradius 30.6354
rwrist -18.8522
rhand -19.0411 -20.384
rfingers 7.12502
rthumb 7.26551 -50.2393
lclavicle -2.03754e-014 -1.59028e-014
lhumerus -51.4853 2.75189 77.3889
lradius 41.9995
lwrist -10.0014
lhand -27.8054 27.5983
lfingers 7.12502
lthumb -1.19795 57.5747
rfemur -13.8228 8.70142 34.4578
rtibia 9.17553
rfoot 350.242 -13.6435
rtoes -12.9522
lfemur 8.8907 -2.40845 -22.6936
ltibia 40.2769
lfoot 369.15 27.7064
ltoes -27.932
173
root -14.6459 15.602 1.71261 393.801 -81.9805 -389.964
lowerback 7.72613 -0.951979 -1.70548
upperback -9.78694 -1.3936 3.41945
thorax -15.101 -0.311127 5.11438
lowerneck -14.1797 -5.24339 -6.42424
upperneck 29.5588 -5.95038 -2.07571
head 12.2587 -3.93045 -0.623715
rclavicle -6.4605e-015 1.31198e-014
rhumerus -54.5924 15.9637 -64.1316
rradius 31.281
rwrist -18.0039
rhand -19.5576 -19.95
rfingers 7.12502
rthumb 6.76687 -49.8218
lclavicle -6.4605e-015 1.31198e-014
lhumerus -51.7958 3.72326 76.244
lradius 40.6065
lwrist -10.577
lhand -26.6405 28.8129
lfingers 7.12502
lthumb -0.0728497 58.7926
rfemur -11.4019 8.40952 35.8716
rtibia 7.43525
rfoot 349.428 -13.8602
rtoes -13.7948
lfemur 5.37046 -1.06309 -20.2257
ltibia 45.1783
lfoot 364.152 29.1761
ltoes -27.0334
174
root -14.9049 15.6681 1.67764 396.085 -80.8325 -392.324
lowerback 7.7483 -0.963597 -0.884351
upperback -9.78416 -1.25301 3.72665
thorax -15.134 -0.315118 4.97104
lowerneck -14.1811 -5.65887 -6.91637
upperneck 29.4389 -6.46102 -1.90324
head 12.2546 -4.18171 -0.552444
rclavicle -2.6339e-014 2.70347e-014
rhumerus -54.1033 17.0306 -65.0913
rradius 31.8324
rwrist -17.2358
rhand -19.8777 -19.801
rfingers 7.12502
rthumb 6.45793 -49.6826
lclavicle -2.6339e-014 2.70347e-014
lhumerus -52.0367 4.50302 75.0238
lradius 39.4025
lwrist -11.1387
lhand -26.2913 29.5765
lfingers 7.12502
lthumb 0.26437 59.5561
rfemur -9.26731 8.27804 37.0772
rtibia 5.67223
rfoot 348.768 -14.1224
rtoes -14.6786
lfemur 1.09229 0.228715 -18.2395
ltibia 50.4409
lfoot 360.829 28.8989
ltoes -24.8281
